# xmcd CD database file
#
# Track frame offsets:
#	150
#	24722
#	41543
#	66616
#	84445
#	111939
#	128943
#	148003
#	182478
#	208490
#	236173
#	250473
#	269967
#	290308
#
# Disc length: 4255 seconds
#
# Revision: 0
# Processed by: cddbd v1.5.2PL0 Copyright (c) Steve Scherf et al.
# Submitted via: CDex 1.51
#
DISCID=e7109d0e
DTITLE=Sam Most - Four Classic Albums - CD 2
DYEAR=2017
DGENRE=Jazz
TTITLE0=Strictly Confidential
TTITLE1=Half Nelson
TTITLE2='Round Midnight
TTITLE3=In Walked Bud
TTITLE4=Serpent's Tooth
TTITLE5=Celia
TTITLE6=Confirmation
TTITLE7=Bluebird
TTITLE8=It Might As Well Be Spring
TTITLE9=You Stepped Out Of A Dream
TTITLE10=Softly As In A Morning Sunrise
TTITLE11=Lover Man
TTITLE12=Alone Together
TTITLE13=When Your Lover Has Gone
EXTD=YEAR: 2017
EXTT0=
EXTT1=
EXTT2=
EXTT3=
EXTT4=
EXTT5=
EXTT6=
EXTT7=
EXTT8=
EXTT9=
EXTT10=
EXTT11=
EXTT12=
EXTT13=
PLAYORDER=
